# xmcd CD database file
#
# Track frame offsets:
#	150
#	23015
#	49637
#	74887
#	96022
#	110215
#	127795
#	162945
#	186802
#	221587
#
# Disc length: 3129 seconds
#
# Revision: 1
# Processed by: cddbd v1.5.2PL0 Copyright (c) Steve Scherf et al.
# Submitted via: CDex 1.51
#
DISCID=8b0c370a
DTITLE=Pat Martino - All Sides Now
DYEAR=1997
DGENRE=Jazz
TTITLE0=Too High
TTITLE1=Two Of A Kind
TTITLE2=Progression
TTITLE3=I'm Confessin' (That I Love You)
TTITLE4=Ellipsis
TTITLE5=Both Sides Now
TTITLE6=Ayako
TTITLE7=Two Days Old
TTITLE8=Outrider
TTITLE9=Never And After
EXTD=YEAR: 1997
EXTT0=
EXTT1=
EXTT2=
EXTT3=
EXTT4=
EXTT5=
EXTT6=
EXTT7=
EXTT8=
EXTT9=
PLAYORDER=
